<svg width="560" height="150" viewBox="0 0 560 150" fill="none" xmlns="http://www.w3.org/2000/svg"><path d="M394.132 91.7791C400.142 91.7791 405.017 96.6611 405.017 102.687C405.017 108.71 400.142 113.595 394.132 113.595C388.121 113.595 383.246 108.71 383.246 102.687C383.246 96.6646 388.121 91.7791 394.132 91.7791Z" fill="#fff"/><path fill-rule="evenodd" clip-rule="evenodd" d="M532.215 122.777C533.414 121.432 538.5 117.432 544.083 117.432C552.872 117.432 560 124.575 560 133.382C560 142.19 552.872 149.332 544.083 149.332C539.364 149.332 535.134 147.259 532.219 143.987H492.727C470.001 143.987 451.512 125.46 451.512 102.687V31.5394C451.512 25.8438 446.888 21.2102 441.204 21.2102H370.499C359.443 21.2102 350.45 30.2219 350.45 41.2969C350.45 52.3717 359.447 61.3834 370.499 61.3834H394.132C416.857 61.3834 435.346 79.9109 435.346 102.684C435.346 125.457 416.857 143.984 394.132 143.984H324.198C306.844 143.984 292.724 129.838 292.724 112.444V45.3516L240.977 121.773C236.737 128.037 229.034 130.751 221.815 128.531C214.595 126.308 209.744 119.73 209.744 112.158V45.3516L146.105 139.333C144.06 142.357 140.727 143.987 137.336 143.987C135.291 143.987 133.225 143.391 131.404 142.156C126.566 138.867 125.306 132.272 128.588 127.424L211.568 4.87524C214.177 1.02136 218.991 -0.67749 223.435 0.69458C227.876 2.06311 230.91 6.17578 230.91 10.8331V98.8571L294.548 4.87524C297.157 1.02136 301.972 -0.67749 306.415 0.69458C310.856 2.06311 313.89 6.17578 313.89 10.8331V112.444C313.89 118.14 318.514 122.774 324.198 122.774H394.132C405.184 122.774 414.177 113.762 414.177 102.687C414.177 91.6122 405.184 82.6005 394.132 82.6005H370.499C347.773 82.6005 329.284 64.073 329.284 41.3002C329.284 18.5273 347.773 0 370.499 0H441.204C458.558 0 472.678 14.1492 472.678 31.5394V102.691C472.678 113.765 481.671 122.777 492.723 122.777H532.215ZM131.347 133.382C131.347 136.702 134.034 139.395 137.347 139.395C140.659 139.395 143.347 136.702 143.347 133.382C143.347 130.063 140.659 127.37 137.347 127.37C134.034 127.37 131.347 130.063 131.347 133.382ZM536.578 133.379C536.578 137.532 539.938 140.896 544.079 140.896C548.224 140.896 551.581 137.532 551.581 133.379C551.581 129.225 548.224 125.862 544.079 125.862C539.935 125.862 536.578 129.225 536.578 133.379Z" fill="#fff"/><path d="M370.495 52.2083C364.485 52.2083 359.61 47.3262 359.61 41.3002C359.61 35.2776 364.485 30.3921 370.495 30.3921C376.505 30.3921 381.381 35.2776 381.381 41.3002C381.381 47.3229 376.505 52.2083 370.495 52.2083Z" fill="#fff"/><path d="M87.8215 33.4086L103.966 33.4052C124.348 33.4052 140.934 50.0363 140.934 70.46C140.934 90.8837 124.348 107.498 103.966 107.498C89.1635 107.498 76.3685 98.7277 70.4706 86.1038C64.5725 98.7277 51.7776 107.498 36.9747 107.498C16.5831 107.498 0 90.8837 0 70.46V10.6051C7.66809 10.6051 13.8855 16.8353 13.8855 24.5194V70.4565C13.8855 83.2031 24.2478 93.5732 36.9714 93.5732C49.6949 93.5732 60.0505 83.2201 60.0505 70.4565C60.0505 57.693 49.6984 47.3195 36.9714 47.3195H20.8265V33.4052H36.9747C49.3314 33.4052 60.2849 39.5197 67.0017 48.8855V10.6051C74.6698 10.6051 80.8872 16.8353 80.8872 24.5194V70.46C80.8872 83.2064 91.2462 93.5767 103.966 93.5767C116.687 93.5767 127.045 83.2235 127.045 70.46C127.045 57.6964 116.69 47.3229 103.966 47.3229H87.8215V33.4086Z" fill="#fff"/></svg>